<svg xmlns="http://www.w3.org/2000/svg" xmlns:xlink="http://www.w3.org/1999/xlink" width="241.042" height="65.117" viewBox="0 0 241.042 65.117">
  <defs>
    <clipPath id="clip-path">
      <rect id="Rectangle_71" data-name="Rectangle 71" width="241.042" height="65.117" fill="none"/>
    </clipPath>
  </defs>
  <g id="Group_2336" data-name="Group 2336" clip-path="url(#clip-path)">
    <path id="Path_29" data-name="Path 29" d="M420.7,78.782v.076H410.371v-.076a3.643,3.643,0,0,0,3.307-3.637V61.231a11.511,11.511,0,0,0-.522-3.675,5.193,5.193,0,0,0-1.437-2.328,5.968,5.968,0,0,0-1.882-1.132,6.191,6.191,0,0,0-2.086-.343,9.526,9.526,0,0,0-.992.051,4.414,4.414,0,0,0-1.018.242q-.534.191-.9.293a4.7,4.7,0,0,0-.992.458q-.624.356-.89.483a9.51,9.51,0,0,0-.979.611q-.712.484-.89.6t-.992.687q-.814.572-.941.674a18.113,18.113,0,0,1,.356,3.79V75.145a3.643,3.643,0,0,0,3.307,3.637v.076H392.463v-.076a3.663,3.663,0,0,0,3.332-3.637V61.231a11.5,11.5,0,0,0-.521-3.675,5.194,5.194,0,0,0-1.437-2.328,5.968,5.968,0,0,0-1.882-1.132,6.191,6.191,0,0,0-2.086-.343,7.661,7.661,0,0,0-2.785.56,13.633,13.633,0,0,0-2.264,1.081q-.827.522-2.607,1.793-.127.076-.2.127c-.051.034-.11.076-.178.127l-.2.153V75.145a3.644,3.644,0,0,0,3.307,3.637v.076H374.605v-.076a3.643,3.643,0,0,0,3.307-3.637V58.763a6.8,6.8,0,0,0-.509-2.849,2.159,2.159,0,0,0-1.272-1.2,2.329,2.329,0,0,0-1.755.026l-1.068.458-.1-.178,6.156-2.976a8.671,8.671,0,0,1,1.615,2.289,7.586,7.586,0,0,1,.623,2.874l.025-.051q.2-.127,1.284-.9t1.475-1.03q.394-.254,1.4-.89a11.9,11.9,0,0,1,1.641-.9q.635-.267,1.577-.636a8.827,8.827,0,0,1,1.818-.509,11.252,11.252,0,0,1,1.768-.14q5.138,0,6.461,5.316.1-.077.916-.649l1.03-.725q.216-.153,1.018-.687t1.145-.738q.344-.2,1.119-.649a9.873,9.873,0,0,1,1.233-.623q.458-.178,1.183-.483a8.078,8.078,0,0,1,1.272-.432q.547-.127,1.221-.229a8.617,8.617,0,0,1,1.285-.1q6.919,0,6.919,9.488V75.145a3.643,3.643,0,0,0,3.307,3.637Z" transform="translate(-286.202 -39.914)"/>
    <path id="Path_30" data-name="Path 30" d="M290.376,68.509a3.663,3.663,0,0,0,3.332,3.637v.076H283.355v-.076a3.643,3.643,0,0,0,3.307-3.637v-18.7a1.455,1.455,0,0,0-1.984-1.348l-1.577.611v-.2l3.561-1.679,3.714-1.78v23.1ZM195.214,46.473l-3.129,3.1-3.129-3.1,3.129-3.077Z" transform="translate(-144.906 -33.279)"/>
    <path id="Path_31" data-name="Path 31" d="M669.069,78.649a7.22,7.22,0,0,0,5.036-1.132,8.566,8.566,0,0,0,3.2-4.413h2.849a12.583,12.583,0,0,1-4.909,4.5,14.718,14.718,0,0,1-6.944,1.628,14.454,14.454,0,0,1-7.682-2.048,12.589,12.589,0,0,1-4.986-5.558q-.026-.076-.089-.216c-.042-.093-.072-.156-.089-.191a14.138,14.138,0,0,1-1.094-5.6,13.814,13.814,0,0,1,1.806-7.059,12.453,12.453,0,0,1,4.985-4.82,14.89,14.89,0,0,1,7.148-1.7,14.539,14.539,0,0,1,7.466,1.908,12.567,12.567,0,0,1,4.973,5.265c.017.034.038.081.064.14a.4.4,0,0,0,.064.114l.076.153-3.917,1.857-2.315,1.094-15.16,7.2a15.468,15.468,0,0,0,3.752,6.092,9.518,9.518,0,0,0,5.761,2.785m-10.506-17.4a19.136,19.136,0,0,0,.839,8.114l17.475-8.318a15.21,15.21,0,0,0-3.752-5.774,9.554,9.554,0,0,0-5.609-2.645,7.15,7.15,0,0,0-6.016,1.9,10.587,10.587,0,0,0-2.938,6.728" transform="translate(-501.814 -39.908)"/>
    <path id="Path_32" data-name="Path 32" d="M804.777,78.127a11.391,11.391,0,0,0,4.795-1.119,12.961,12.961,0,0,0,4.286-3.205l.305.229-.076.076a11.742,11.742,0,0,1-4.68,3.739A15.266,15.266,0,0,1,803,79.17a14.8,14.8,0,0,1-7.148-1.717,12.534,12.534,0,0,1-4.985-4.833,13.812,13.812,0,0,1-1.806-7.059,12.793,12.793,0,0,1,3.828-9.628,14.617,14.617,0,0,1,9.933-3.956q6.994-.28,11.345,3.1L810.5,58.412a12.566,12.566,0,0,0-4.261-4.1,10.445,10.445,0,0,0-5.38-1.577,6.664,6.664,0,0,0-5.482,2.556,10.918,10.918,0,0,0-2.049,7.009,20.2,20.2,0,0,0,.839,5.761,19.143,19.143,0,0,0,2.3,5.075,11.913,11.913,0,0,0,3.637,3.612,8.585,8.585,0,0,0,4.67,1.373" transform="translate(-605.105 -39.844)"/>
    <path id="Path_33" data-name="Path 33" d="M897.52,35.281a3.584,3.584,0,0,0,.967,2.429,3.493,3.493,0,0,0,2.34,1.157v.076H890.474v-.077a3.664,3.664,0,0,0,3.332-3.637V21.316a10.793,10.793,0,0,0-.56-3.675,5.225,5.225,0,0,0-1.526-2.328,6.392,6.392,0,0,0-1.984-1.132,6.881,6.881,0,0,0-2.213-.343q-.534,0-1.043.051a5.52,5.52,0,0,0-1.081.229q-.573.178-.928.267a5.188,5.188,0,0,0-1.018.432q-.662.343-.9.458t-1.005.6q-.763.484-.916.572t-1.043.687q-.891.6-.992.674V35.23a3.644,3.644,0,0,0,3.307,3.637v.076H871.574v-.076a3.644,3.644,0,0,0,3.307-3.637V10.861a10.613,10.613,0,0,0-1.678-5.8A9.92,9.92,0,0,0,870,3.815a14.71,14.71,0,0,0-2.9-.229h-5.114L860.356,0h3.637a11,11,0,0,1,4.146.788,10.834,10.834,0,0,1,1.984,1.094q.484.331.967.738a2.119,2.119,0,0,1,.216.178q.14.128.216.2,1.068.992,3.281,3.129a16.636,16.636,0,0,1,1.831,2.111,10.349,10.349,0,0,1,1.119,2.035,10.6,10.6,0,0,1,.839,4.172v2.8l1.361-.916q1.132-.763,1.564-1.018t1.488-.89a12.448,12.448,0,0,1,1.73-.9q.673-.267,1.653-.636a9.409,9.409,0,0,1,1.908-.509,12.762,12.762,0,0,1,1.9-.14q7.326,0,7.326,9.488Z" transform="translate(-659.785 0)"/>
    <path id="Path_34" data-name="Path 34" d="M277.594,63.5a20.482,20.482,0,0,1,4.332,1.147,11.065,11.065,0,0,1,2.777,1.5,6.082,6.082,0,0,1,1.5,1.772,5.984,5.984,0,0,1,.688,1.669,9.445,9.445,0,0,1,.153,1.478,7.326,7.326,0,0,1-2.93,5.848,12.076,12.076,0,0,1-7.7,2.255,15.871,15.871,0,0,1-10.09-3.211l3.593-3.313a15.951,15.951,0,0,0,4,4.255,7.915,7.915,0,0,0,4.536,1.733,4.685,4.685,0,0,0,3.924-1.44,5.821,5.821,0,0,0,1.172-3.758,4.985,4.985,0,0,0-1.655-4.1,10.55,10.55,0,0,0-4.892-1.912q-8.791-1.554-9.836-6.88a5.993,5.993,0,0,1,.026-2.522,6.7,6.7,0,0,1,3.312-4.446,12.215,12.215,0,0,1,6.4-1.618,17.763,17.763,0,0,1,5.478.879,12.425,12.425,0,0,1,4.118,2.059l-4.118,2.77a10.824,10.824,0,0,0-3.07-3.453,7.663,7.663,0,0,0-4.345-1.592,4.261,4.261,0,0,0-3.58,1.452,5.659,5.659,0,0,0-1.134,3.593,5,5,0,0,0,.472,2.217,4.708,4.708,0,0,0,1.159,1.554,6.61,6.61,0,0,0,1.758,1.032,12.614,12.614,0,0,0,1.937.65q.865.205,2.012.383" transform="translate(-204.242 -39.841)"/>
    <path id="Path_35" data-name="Path 35" d="M102.482,98.541q-.48.327-1.385.843t-1.976,1.046q-1.071.529-2.408,1.107t-3.107,1.219q-1.768.641-3.745,1.23a67.2,67.2,0,0,1-20.875,2.575,49.965,49.965,0,0,1-26.846-9.025,64.714,64.714,0,0,1-13.877-12.96Q21.6,76.348,11.769,62.6A41.124,41.124,0,0,0,8.946,59,10.94,10.94,0,0,0,0,55.428V54.085l19.15-.008a4.18,4.18,0,0,1,.3.436c.1.168.18.293.23.376q6.792,9.978,10.447,14.821a240.149,240.149,0,0,0,17,20.577,52.309,52.309,0,0,0,9.667,7.894,46.17,46.17,0,0,0,8.986,4.582,40.166,40.166,0,0,0,7.845,1.886,41.816,41.816,0,0,0,5.523.51q1.513-.036,2.779-.187A57.363,57.363,0,0,0,101.1,98.891" transform="translate(0 -41.47)"/>
  </g>
</svg>
